<?xml version="1.0" encoding="utf-8"?>
<!-- Generator: Adobe Illustrator 27.5.0, SVG Export Plug-In . SVG Version: 6.00 Build 0)  -->
<svg version="1.1" id="Calque_1" xmlns="http://www.w3.org/2000/svg" xmlns:xlink="http://www.w3.org/1999/xlink" x="0px" y="0px"
	 viewBox="0 0 1591.2 561.8" style="enable-background:new 0 0 1591.2 561.8;" xml:space="preserve">
<style type="text/css">
	.st0{fill:#FFFFFF;}
</style>
<g>
	<g>
		<g>
			<g>
				<polygon class="st0" points="475.4,212.3 482.6,215.7 489.6,211.7 486.2,219 490.2,226 482.9,222.5 475.9,226.5 479.4,219.3 
									"/>
			</g>
			<g>
				<polygon class="st0" points="453.8,252.7 456.3,257.2 461.3,257.8 456.9,260.2 456.3,265.3 453.9,260.8 448.8,260.2 
					453.3,257.8 				"/>
			</g>
			<g>
				<path class="st0" d="M236.9,478.4c0,0-38.9-199,3.9-412.7c0,0,4.5,97,17.8,204.3c0,0,12,88.9,2.9,135.9
					C261.6,405.9,258.3,437.7,236.9,478.4z"/>
			</g>
			<g>
				<path class="st0" d="M232.6,478c-24.8-99.7-23.4-196.6-23.4-196.6c5.4-124.6,26.6-214.6,26.6-214.6S214.6,181.5,216.5,293
					C218.3,394.6,232.6,478,232.6,478z"/>
			</g>
			<g>
				<path class="st0" d="M311.5,438.4L307,105.9c0,0-18.5,103.8-17.8,195.6C289.2,301.5,287.2,398.5,311.5,438.4z"/>
			</g>
			<g>
				<path class="st0" d="M314.4,438.4l4.5-332.5c0,0,18.5,103.8,17.8,195.6C336.8,301.5,338.7,398.5,314.4,438.4z"/>
			</g>
			<g>
				<path class="st0" d="M111.6,330.1c-1.2-14.9-2.1-31.8-2.1-50.3c0-56.7,8.2-101.7,9.9-110.5C136.6,75.7,218.3,7.7,313.6,7.7
					c95.4,0,177,68,194.2,161.8c3,15.7,9.9,58,9.9,110.4c0,0.1,0,0.1,0,0.2c1.6,0,3.2-0.1,4.7-0.1v-0.1c0-53.8-7.2-96.2-10-111.4
					C494.9,72.6,411.3,3,313.6,3C216,3,132.4,72.6,114.9,168.5v0.1c-2.8,15.2-10,57.4-10,111.2c0,18.9,0.9,36.4,2.2,51.8
					C108.5,331.2,110.1,330.7,111.6,330.1z"/>
				<path class="st0" d="M507.8,390.4C490.7,484.1,409,552,313.6,552c-84.5,0-158.2-53.5-185.9-130.9c-1.7,0.4-3.2,0.8-4.6,1.2
					c28.1,79.5,103.7,134.4,190.5,134.4c97.7,0,181.3-69.6,198.8-165.5c0.7-3.6,1.6-8.8,2.6-15.4c-1.6,0-3.2,0-4.8-0.1
					C509.5,380.8,508.7,385.6,507.8,390.4z"/>
				<g>
					<path class="st0" d="M3,406c0,0,37.5-9.6,101.4-21.9l-0.5-2C40.6,395.4,3,406,3,406z"/>
				</g>
				<g>
					<path class="st0" d="M540.2,329.9l-0.2,2.3c27.5-1.2,55.5-2,84-2.3C595.8,329.2,567.8,329.3,540.2,329.9z"/>
				</g>
				<g>
					<path class="st0" d="M520.4,330.5c-0.1,0.9-0.1,1.8-0.2,2.7c6.6-0.3,13.2-0.6,19.8-0.9l0.2-2.3
						C533.6,330.1,527,330.3,520.4,330.5z"/>
				</g>
				<g>
					<path class="st0" d="M103.9,382.1l0.5,2c2.9-0.6,5.9-1.1,8.9-1.7c-0.1-0.7-0.2-1.4-0.4-2.2
						C109.9,380.8,106.8,381.4,103.9,382.1z"/>
				</g>
				<g>
					<path class="st0" d="M117.6,379.2c0.1,0.8,0.3,1.5,0.4,2.3c27.7-5.2,59.8-10.8,95.4-16.4v-3.6
						C177.7,367.4,145.4,373.5,117.6,379.2z"/>
				</g>
				<g>
					<path class="st0" d="M226.4,359.4v3.7c24.1-3.6,49.7-7.2,76.5-10.6v-4.2C276.1,351.8,250.5,355.6,226.4,359.4z"/>
				</g>
				<g>
					<path class="st0" d="M321.7,346v4.2c23.6-2.8,48-5.5,73.3-7.9v-4.1C369.8,340.5,345.4,343.1,321.7,346z"/>
				</g>
				<g>
					<path class="st0" d="M411.2,336.9v4c33.6-3,68.3-5.6,104.2-7.5c0.1-0.9,0.1-1.8,0.2-2.7C479.9,331.9,445,334.1,411.2,336.9z"/>
				</g>
				<g>
					<path class="st0" d="M112.9,380.2c0.1,0.8,0.2,1.5,0.4,2.2c1.5-0.3,3.1-0.6,4.7-0.9c-0.1-0.8-0.2-1.5-0.4-2.3
						C116,379.5,114.4,379.8,112.9,380.2z"/>
				</g>
				<g>
					<path class="st0" d="M515.6,330.6c-0.1,0.9-0.1,1.8-0.2,2.7c1.6-0.1,3.2-0.2,4.8-0.2c0.1-0.9,0.1-1.8,0.2-2.7
						C518.8,330.5,517.2,330.6,515.6,330.6z"/>
				</g>
			</g>
			<g>
				<path class="st0" d="M385.8,478.4c0,0,44-197.9,6.6-412.7c0,0-7,96.8-23,203.8c0,0-14.3,88.5-6.4,135.8
					C363,405.3,365.4,437.2,385.8,478.4z"/>
			</g>
			<g>
				<path class="st0" d="M390.2,478.1c27.3-99.1,28.3-195.9,28.3-195.9C416.3,157.5,397.4,67,397.4,67s18.3,115.2,13.5,226.7
					C406.6,395.1,390.2,478.1,390.2,478.1z"/>
			</g>
		</g>
	</g>
	<g>
		<g>
			<path class="st0" d="M691.7,470.9h12.8l3.5,13h5.6l-12.7-45h-5.6l-12.8,45h5.6L691.7,470.9z M698.1,446.5l5,19.5H693L698.1,446.5
				z"/>
			<path class="st0" d="M745,484.7c3.7,0,6.6-1.1,9.8-2.8l-1.9-4.6c-2.7,1.8-5.2,2.6-7.6,2.6c-7.3,0-12.8-7.1-12.8-17.9
				c0-9.8,5.4-16.8,11.9-16.8c2.8,0,5.5,1.4,7.9,3.8l3.1-4.4c-0.6-0.5-4.2-4.1-10.9-4.1c-10.5,0-17.7,9.5-17.7,21.9
				C726.8,475.4,734,484.7,745,484.7"/>
			<path class="st0" d="M776.4,471.2h12.8l3.5,12.6h5.6L785.6,440H780l-12.8,43.8h5.6L776.4,471.2z M782.8,447.6l5,19h-10.1
				L782.8,447.6z"/>
			<path class="st0" d="M844.2,462.4c0-12.1-7.6-21.1-18.3-21.1h-11.3v42.6h11.2C838.4,483.9,844.2,474.1,844.2,462.4 M819.9,479.6
				v-33.9h5.3c7,0,13.5,7.2,13.5,16.7c0,8.1-4.4,17.2-13.5,17.2L819.9,479.6L819.9,479.6z"/>
			<polygon class="st0" points="879.4,430.2 873.8,430.2 868.8,437.9 873.4,437.9 			"/>
			<polygon class="st0" points="883.4,479.6 867.9,479.6 867.9,464.3 880.3,464.3 880.3,460 867.9,460 867.9,445.6 882.9,445.6 
				882.9,441.3 862.7,441.3 862.7,483.9 883.4,483.9 			"/>
			<polygon class="st0" points="906.7,449.8 907.1,452.1 916.5,483.9 921.4,483.9 931.5,451.3 931.8,449.1 931.8,483.9 936.9,483.9 
				936.9,441.3 930.2,441.3 919.4,475.9 919.3,477.7 919.1,475.9 908.7,441.3 902,441.3 902,483.9 906.7,483.9 			"/>
			<rect x="958.6" y="441.3" class="st0" width="5.3" height="42.6"/>
			<polygon class="st0" points="1006.1,479.6 990.7,479.6 990.7,464.3 1003.1,464.3 1003.1,460 990.7,460 990.7,445.6 1005.7,445.6 
				1005.7,441.3 985.4,441.3 985.4,483.9 1006.1,483.9 			"/>
			<path class="st0" d="M1080,461.9c0-12.5-7.6-21.7-18.3-21.7h-11.3V484h11.2C1074.3,484,1080,473.9,1080,461.9 M1061,479.5h-5.3
				v-34.9h5.3c7,0,13.5,7.4,13.5,17.2C1074.5,470.2,1070.1,479.5,1061,479.5"/>
			<polygon class="st0" points="1118.7,445.7 1118.7,441.4 1098.5,441.4 1098.5,484 1119.2,484 1119.2,479.7 1103.8,479.7 
				1103.8,464.4 1116.2,464.4 1116.2,460.1 1103.8,460.1 1103.8,445.7 			"/>
			<path class="st0" d="M1149.5,460.9c-7-4.6-8.4-6.1-8.4-9.3c0-3.7,2.8-6.2,6.1-6.2c3.6,0,5.5,0.9,8.3,3l2.5-4.7
				c-3.5-2.4-6.1-3-10.5-3c-7.5,0-11.8,4.6-11.8,11.3c0,4.4,2.2,7.7,7.4,11.1c3.9,2.6,9.1,4.9,9.1,10.3c0,4.1-2.6,6.6-6,6.6
				c-3.9,0-5.8-1.2-8.8-3.2l-2.8,4.5c3.9,2.5,6.3,3.4,11.3,3.4c7.5,0,11.7-5.1,11.7-11.9C1157.6,466.9,1154.3,464,1149.5,460.9"/>
			<path class="st0" d="M1199.6,484h12.6c6.3,0,10.5-4.7,10.5-11.5c0-5.8-2.9-9.8-7.5-11c3.6-1.6,6.2-5.2,6.2-9.8
				c0-6.6-4.2-10.6-10.8-10.6h-11L1199.6,484L1199.6,484z M1204.9,445.6h4.7c4.1,0,6.2,2.7,6.2,6.7c0,3.8-2.3,7.4-6.5,7.4h-4.4
				L1204.9,445.6L1204.9,445.6z M1204.9,464.4h4.7c4,0,7.5,2.8,7.5,7.8c0,4.9-2.7,7.4-7.5,7.4h-4.7V464.4z"/>
			<polygon class="st0" points="1262.5,479.6 1247,479.6 1247,464.4 1259.4,464.4 1259.4,460 1247,460 1247,445.6 1262,445.6 
				1262,441.2 1241.7,441.2 1241.7,484 1262.5,484 			"/>
			<path class="st0" d="M1288.6,440l-12.8,44h5.6l3.6-12.7h12.9l3.5,12.7h5.6l-12.8-44H1288.6z M1286.3,466.6l5.1-19l5,19H1286.3z"
				/>
			<path class="st0" d="M1350.4,469.3v-28.1h-5.3v26.5c0,5.6-1.5,12.9-8.7,12.9c-7.3,0-8.6-7.3-8.6-12.9v-26.5h-5.3v28.1
				c0,8.8,4.5,15.9,14,15.9C1345.6,485.2,1350.4,478.2,1350.4,469.3"/>
			<polygon class="st0" points="1383.5,462.2 1395.4,441.2 1389.7,441.2 1381,457.4 1372,441.2 1366.4,441.2 1378.2,462.1 
				1365.8,484 1371.4,484 1380.9,466.8 1390.2,484 1395.8,484 			"/>
			<rect x="1408.8" y="466.5" class="st0" width="11" height="4.9"/>
			<path class="st0" d="M1441.9,471.3h12.9l3.5,12.7h5.6l-12.8-44h-5.6l-12.8,44h5.6L1441.9,471.3z M1448.3,447.5l5,19h-10.1
				L1448.3,447.5z"/>
			<path class="st0" d="M1502.6,452.8c0-7.5-4.6-11.6-12.1-11.6h-10.3V484h5.3v-18.4h3.3l9.7,18.4h5.8l-10.4-19.1
				C1497.7,464.4,1502.6,460.9,1502.6,452.8 M1485.6,461.2v-15.8h4.4c4.9,0,7,2.5,7,7.5c0,5.6-3.2,8.4-7,8.4h-4.4V461.2z"/>
			<polygon class="st0" points="1517.3,445.6 1528.2,445.6 1528.2,484 1533.5,484 1533.5,445.6 1544.3,445.6 1544.3,441.2 
				1517.3,441.2 			"/>
			<path class="st0" d="M1573.3,460.8c-7-4.6-8.5-6.2-8.5-9.3c0-3.7,2.8-6.2,6.1-6.2c3.6,0,5.5,0.9,8.3,3l2.5-4.7
				c-3.5-2.4-6.1-3-10.5-3c-7.5,0-11.9,4.7-11.9,11.4c0,4.4,2.2,7.7,7.4,11.1c3.9,2.6,9.1,4.9,9.1,10.4c0,4.1-2.7,6.7-6,6.7
				c-3.9,0-5.8-1.2-8.8-3.2l-2.8,4.5c4,2.5,6.3,3.4,11.3,3.4c7.5,0,11.8-5.1,11.8-11.9C1581.4,466.8,1578.1,463.9,1573.3,460.8"/>
		</g>
	</g>
	<g>
		<g>
			<path class="st0" d="M691.4,306.5c-2.4,4.1-3.9,6.2-8,11.3l-11.3-7.6c4.2-6.6,5.1-8.4,7-12.2c2.9-6.1,4.1-12.3,4.1-21.4v-71.8
				h15.2v86.1C696.1,298.3,694.8,300.9,691.4,306.5z"/>
			<path class="st0" d="M751.2,288.4l-5.3-21h-20.1l-5.4,21h-15.8l24.3-83.6h13.9l24.3,83.6H751.2z M735.6,225.5l-7.1,29.1h14.1
				L735.6,225.5z"/>
			<path class="st0" d="M803.2,290c-22.9,0-37-20.1-37-43.8c0-23.2,14.4-42.9,37-42.9c10.1,0,17.9,2.7,23.4,7.9l-8.4,12.8l-2-1.9
				c-0.9-0.8-1.9-1.5-3.2-2.3c-2.3-1.4-5.3-2.5-9.2-2.5c-11.3,0-21.2,11.9-21.2,28.1c0,18.4,10.1,30.8,23.2,30.8
				c4.4,0,8.9-0.9,14.8-5.1l6,13.6C819.5,288.6,811.7,290,803.2,290z"/>
			<path class="st0" d="M875.3,288.5c2.5,4.7,4.2,6.5,7.3,9.6c1.9,1.9,3.7,3.3,5.6,4.6c1.6,1.1,3.5,2.2,5.6,3.4l-10.5,11.4
				c-4.1-2.9-9.6-7.3-14.2-12.5c-4.3-4.9-7.7-9.6-10.9-15.7c-4.7-0.6-10.3-2.9-14.4-6c-10.1-7.5-16-21.5-16-36.9
				c0-25.6,14.1-43.2,37.2-43.2c23.1,0,37.1,17.6,37.1,43.2C902.2,264.2,894.5,282.9,875.3,288.5z M865.1,216.2
				c-11,0-21,13.1-21,30.3c0,17.4,10,30.4,21,30.4s20.9-13,20.9-30.4C886,229.3,876.1,216.2,865.1,216.2z"/>
			<path class="st0" d="M958.8,283.8c-4.7,4.1-9.6,6.2-19.6,6.2c-10.1,0-15.3-2-20.3-6.2c-6.8-5.8-9.1-12.7-9.1-28v-51.1H925v51.9
				c0,12.8,5.7,19.9,14.7,19.9c9.5,0,13.8-9,13.8-19.9v-51.9h14.8v51.1C968.3,269.6,965.8,277.9,958.8,283.8z"/>
			<path class="st0" d="M982.5,288.4v-83.6h43.5v12.7h-28.3v21.9h23.2V252h-23.2v23.7h29.6v12.7L982.5,288.4L982.5,288.4z"/>
			<path class="st0" d="M1075,223.6c-6.7-4.7-10.8-5.8-17.1-5.8c-4.2,0-8.7,3.4-8.7,8.6s6.7,10,13.3,14.6l5.7,3.9
				c2.7,1.8,5.7,4.3,7.2,6.2c3.2,3.7,5.1,8.1,5.1,15.2c0,14.7-9.2,23.7-24.8,23.7c-11,0-18-3.7-25.6-8.9l6.8-13.9
				c6.3,4.7,12.2,8.4,18.9,8.4c4.2,0,8.7-3.7,8.7-9.2c0-3.9-3.2-7.3-6.7-10.1c-3.5-2.8-7.6-4.9-9.8-6.5c-12-8.5-15.6-13.9-15.6-22.9
				c0-16,11.1-23.4,25.8-23.4c9.6,0,15.3,2.2,23.3,7L1075,223.6z"/>
			<path class="st0" d="M1147.8,288.4l-15.5-34.7h-4.2v34.7H1113v-83.6h22.3c17.2,0,26.2,6.5,26.2,24.3c0,13.4-5.6,21.3-14.3,23.2
				l16.7,36.1H1147.8z M1135.4,216.9h-7.2v25.2h7.2c6.5,0,10.6-5.3,10.6-12.7C1146,221.9,1142,216.9,1135.4,216.9z"/>
			<path class="st0" d="M1203,290c-22.8,0-37.2-18.2-37.2-43.5c0-25.6,14.1-43.3,37.2-43.3s37.1,17.7,37.1,43.3
				C1240.1,271.8,1225.7,290,1203,290z M1203,216.2c-11,0-21,13.2-21,30.4c0,17.4,10,30.5,21,30.5s20.9-13.2,20.9-30.5
				S1214,216.2,1203,216.2z"/>
			<path class="st0" d="M1296.7,283.8c-4.7,4.1-9.6,6.2-19.6,6.2c-10.1,0-15.3-2-20.3-6.2c-6.8-5.8-9.1-12.7-9.1-28v-51.1h15.2v51.9
				c0,12.8,5.7,19.9,14.7,19.9c9.5,0,13.8-9,13.8-19.9v-51.9h14.8v51.1C1306.2,269.6,1303.7,277.9,1296.7,283.8z"/>
			<path class="st0" d="M1373.9,223.6c-4.9-3-12.4-7-19.3-7c-13.4,0-24.4,12-24.4,29c0,17.5,12,31,25.3,31c2.7,0,5.1-0.8,7.7-1.6
				v-23.9h15.2v34c-4.3,1.3-8.2,2.5-12.2,3.4c-4.1,0.9-8.2,1.5-12.9,1.5c-21.8,0-39-18-39-43.6c0-24.5,16.2-43.1,38.6-43.1
				c10.1,0,17.7,1.6,26.5,6.3L1373.9,223.6z"/>
			<path class="st0" d="M1392.1,288.4v-83.6h43.5v12.7h-28.3v21.9h23.2V252h-23.2v23.7h29.6v12.7L1392.1,288.4L1392.1,288.4z"/>
			<path class="st0" d="M1481.3,288.4l-15.5-34.7h-4.2v34.7h-15.1v-83.6h22.3c17.2,0,26.2,6.5,26.2,24.3c0,13.4-5.6,21.3-14.3,23.2
				l16.7,36.1H1481.3z M1468.9,216.9h-7.2v25.2h7.2c6.5,0,10.6-5.3,10.6-12.7C1479.5,221.9,1475.5,216.9,1468.9,216.9z"/>
			<path class="st0" d="M1505.2,288.4v-83.6h15.2v83.6H1505.2z"/>
			<path class="st0" d="M1535.6,288.4v-83.6h44.8v12.7h-29.6v21.9h23.2V252h-23.2v23.7h29.6v12.7L1535.6,288.4L1535.6,288.4z"/>
		</g>
	</g>
	<g>
		<g>
			<path class="st0" d="M726.6,347.4c-3.7-2.3-9.3-5.2-14.5-5.2c-10.1,0-18.4,9.1-18.4,21.8c0,13.2,9.1,23.4,19.1,23.4
				c2,0,3.8-0.6,5.8-1.2v-18H730v25.6c-3.2,1-6.2,1.9-9.2,2.6c-3.1,0.7-6.2,1.1-9.7,1.1c-16.4,0-29.4-13.5-29.4-32.8
				c0-18.4,12.2-32.4,29.1-32.4c7.6,0,13.4,1.2,19.9,4.8L726.6,347.4z"/>
			<path class="st0" d="M740.4,396.1v-62.9h32.7v9.5h-21.3v16.5h17.5v9.5h-17.5v17.8h22.3v9.5h-33.7V396.1z M760.9,328.7h-8.6
				l8.7-9.7h10.2L760.9,328.7z"/>
			<path class="st0" d="M815.1,396.3l-22.4-43.6v43.4h-10.5v-62.9h12.5l21.5,43.9v-43.9h10.5v63.1H815.1z"/>
			<path class="st0" d="M839.3,396.1v-62.9H872v9.5h-21.3v16.5h17.4v9.5h-17.4v17.8H873v9.5h-33.7V396.1z M859.8,328.7h-8.6l8.7-9.7
				h10.2L859.8,328.7z"/>
			<path class="st0" d="M906.4,396.1L894.8,370h-3.1v26.1h-11.3v-62.9h16.8c13,0,19.7,4.9,19.7,18.3c0,10.1-4.2,16-10.8,17.4
				l12.6,27.2H906.4z M897.1,342.3h-5.4v19h5.4c4.9,0,8-4,8-9.5C905.1,346.1,902.1,342.3,897.1,342.3z"/>
			<path class="st0" d="M953.2,396.1l-4-15.8H934l-4.1,15.8H918l18.3-62.9h10.5l18.3,62.9H953.2z M941.4,348.8l-5.3,21.9h10.6
				L941.4,348.8z"/>
			<path class="st0" d="M985.6,342.7v53.4h-11.4v-53.4h-15.3v-9.5h42v9.5H985.6z"/>
			<path class="st0" d="M1006,396.1v-62.9h11.4v62.9H1006z"/>
			<path class="st0" d="M1052.1,397.4c-17.2,0-28-13.7-28-32.7c0-19.3,10.6-32.6,28-32.6s27.9,13.4,27.9,32.6
				C1080.1,383.6,1069.2,397.4,1052.1,397.4z M1052.1,341.8c-8.3,0-15.8,9.9-15.8,22.9c0,13.1,7.5,23,15.8,23s15.7-9.9,15.7-23
				C1067.9,351.7,1060.4,341.8,1052.1,341.8z"/>
			<path class="st0" d="M1120.9,396.3l-22.4-43.6v43.4H1088v-62.9h12.5l21.5,43.9v-43.9h10.5v63.1H1120.9z"/>
			<path class="st0" d="M1161.8,396.1v-62.9h32.7v9.5h-21.3v16.5h17.5v9.5h-17.5v17.8h22.3v9.5h-33.7V396.1z"/>
			<path class="st0" d="M1231.4,347.4c-5.1-3.5-8.1-4.4-12.9-4.4c-3.1,0-6.6,2.6-6.6,6.5s5.1,7.5,10,11l4.3,3c2,1.3,4.3,3.2,5.4,4.7
				c2.4,2.8,3.8,6.1,3.8,11.4c0,11.1-7,17.8-18.7,17.8c-8.3,0-13.5-2.8-19.3-6.7l5.2-10.5c4.8,3.5,9.2,6.3,14.2,6.3
				c3.1,0,6.6-2.8,6.6-7c0-3-2.4-5.5-5.1-7.6s-5.7-3.7-7.3-4.9c-9.1-6.4-11.7-10.5-11.7-17.3c0-12,8.4-17.6,19.5-17.6
				c7.2,0,11.5,1.6,17.5,5.2L1231.4,347.4z"/>
			<path class="st0" d="M1258.6,374.8c-1.4,0-2.6,0-3.9-0.1v21.5h-11.4v-62.9h18.3c12.8,0,18.7,6.4,18.7,19.3
				C1280.3,366.9,1273,374.8,1258.6,374.8z M1260.7,342.6h-5.9V365c1.5,0.1,2.7,0.1,3.9,0.1c6.1,0,9.8-3.8,9.8-11.7
				C1268.5,346.3,1265.3,342.6,1260.7,342.6z"/>
			<path class="st0" d="M1314.1,396.1l-4-15.8H1295l-4.1,15.8H1279l18.3-62.9h10.5l18.3,62.9H1314.1z M1302.4,348.8l-5.3,21.9h10.6
				L1302.4,348.8z"/>
			<path class="st0" d="M1353.3,397.4c-17.3,0-27.8-15.2-27.8-33c0-17.5,10.9-32.3,27.8-32.3c7.6,0,13.4,2,17.6,5.9l-6.3,9.6
				l-1.5-1.4c-0.7-0.6-1.4-1.1-2.4-1.7c-1.7-1-4-1.9-7-1.9c-8.5,0-15.9,9-15.9,21.2c0,13.8,7.6,23.2,17.4,23.2
				c3.3,0,6.7-0.7,11.2-3.8l4.5,10.2C1365.5,396.3,1359.7,397.4,1353.3,397.4z"/>
			<path class="st0" d="M1376.6,396.1v-62.9h32.7v9.5H1388v16.5h17.5v9.5H1388v17.8h22.3v9.5h-33.7V396.1z"/>
			<path class="st0" d="M1478.2,396.1v-39.6l-14.6,39.9h-4.9l-13.5-39.1v38.8h-10.1v-62.9h12l14.5,44.3l15.2-44.3h11.9v62.9
				L1478.2,396.1L1478.2,396.1z"/>
			<path class="st0" d="M1501.4,396.1v-62.9h32.7v9.5h-21.3v16.5h17.5v9.5h-17.5v17.8h22.3v9.5h-33.7V396.1z"/>
			<path class="st0" d="M1568.5,396.1l-11.6-26.1h-3.1v26.1h-11.3v-62.9h16.8c13,0,19.7,4.9,19.7,18.3c0,10.1-4.2,16-10.8,17.4
				l12.6,27.2H1568.5z M1559.2,342.3h-5.4v19h5.4c4.9,0,8-4,8-9.5C1567.2,346.1,1564.1,342.3,1559.2,342.3z"/>
		</g>
	</g>
	<g>
		<g>
			<path class="st0" d="M697.9,88.2v23.3h24.2v12.7h-24.2v36h-15.4V75.3h44.9v12.9C727.4,88.2,697.9,88.2,697.9,88.2z"/>
			<path class="st0" d="M809.1,161.9c-23.1,0-37.8-18.5-37.8-44.1c0-26,14.3-44,37.8-44c23.4,0,37.7,18,37.7,44
				C846.8,143.4,832.1,161.9,809.1,161.9z M809.1,86.9c-11.2,0-21.3,13.4-21.3,30.9c0,17.6,10.2,31,21.3,31
				c11.2,0,21.2-13.4,21.2-31C830.3,100.3,820.3,86.9,809.1,86.9z"/>
			<path class="st0" d="M943.6,160.5l-30.2-58.8v58.5h-14.1V75.3H916l28.9,59.1V75.3H959v85.1h-15.4V160.5z"/>
			<path class="st0" d="M1043.6,160.2h-26V75.3h26.1c25.5,0,38.2,17.5,38.2,42.2C1081.9,142.1,1069,160.2,1043.6,160.2z
				 M1042.3,88.7h-9.3v58.1h9.3c13.8,0,23.1-10.7,23.1-29.2C1065.4,102,1059.3,88.7,1042.3,88.7z"/>
			<path class="st0" d="M1171.2,160.2l-5.4-21.3h-20.4l-5.5,21.3h-16.1l24.7-84.9h14.1l24.7,84.9H1171.2z M1155.4,96.4l-7.2,29.6
				h14.3L1155.4,96.4z"/>
			<path class="st0" d="M1256.7,88.2v72h-15.4v-72h-20.6V75.3h56.6v12.9C1277.3,88.2,1256.7,88.2,1256.7,88.2z"/>
			<path class="st0" d="M1326,160.2V75.3h15.4v84.9L1326,160.2L1326,160.2z"/>
			<path class="st0" d="M1430,161.9c-23.1,0-37.8-18.5-37.8-44.1c0-26,14.3-44,37.8-44c23.4,0,37.7,18,37.7,44
				C1467.7,143.4,1453,161.9,1430,161.9z M1430,86.9c-11.2,0-21.3,13.4-21.3,30.9c0,17.6,10.2,31,21.3,31c11.2,0,21.2-13.4,21.2-31
				C1451.2,100.3,1441.2,86.9,1430,86.9z"/>
			<path class="st0" d="M1564.8,160.5l-30.2-58.8v58.5h-14.1V75.3h16.8l28.9,59.1V75.3h14.1v85.1h-15.5V160.5z"/>
		</g>
	</g>
</g>
</svg>
