<?xml version="1.0" encoding="utf-8"?>
<!-- Generator: Adobe Illustrator 27.5.0, SVG Export Plug-In . SVG Version: 6.00 Build 0)  -->
<svg version="1.1" id="Calque_1" xmlns="http://www.w3.org/2000/svg" xmlns:xlink="http://www.w3.org/1999/xlink" x="0px" y="0px"
	 viewBox="0 0 565.4 508.4" style="enable-background:new 0 0 565.4 508.4;" xml:space="preserve">
<style type="text/css">
	.st0{fill:#FFFFFF;}
</style>
<g>
	<g>
		<g>
			<g>
				<polygon class="st0" points="428.8,191.5 435.4,194.6 441.7,191 438.6,197.6 442.2,203.9 435.6,200.8 429.3,204.4 432.4,197.8 
									"/>
			</g>
			<g>
				<polygon class="st0" points="409.3,228.2 411.5,232.2 416.1,232.7 412,235 411.5,239.5 409.3,235.5 404.7,235 408.8,232.8 				
					"/>
			</g>
			<g>
				<path class="st0" d="M212.9,432.6c0,0-35.2-180.2,3.5-373.8c0,0,4.1,87.8,16.2,185.1c0,0,10.9,80.5,2.6,123.1
					C235.2,366.9,232.2,395.7,212.9,432.6z"/>
			</g>
			<g>
				<path class="st0" d="M208.9,432.1c-22.5-90.3-21.1-178-21.1-178c4.8-112.8,24.1-194.3,24.1-194.3s-19.2,103.8-17.5,204.9
					C195.9,356.6,208.9,432.1,208.9,432.1z"/>
			</g>
			<g>
				<path class="st0" d="M280.4,396.3l-4.1-301.1c0,0-16.7,94-16.2,177.1C260.1,272.3,258.4,360.2,280.4,396.3z"/>
			</g>
			<g>
				<path class="st0" d="M283,396.3l4.1-301.1c0,0,16.7,94,16.2,177.1C303.3,272.3,305.1,360.2,283,396.3z"/>
			</g>
			<g>
				<path class="st0" d="M99.4,298.3c-1.1-13.5-1.9-28.8-1.9-45.5c0-51.4,7.4-92.1,9-100.1C122,67.8,195.9,6.3,282.3,6.3
					s160.3,61.6,175.9,146.5c2.7,14.3,9,52.5,9,99.9c0,0.1,0,0.1,0,0.2c1.5,0,2.9,0,4.3-0.1v-0.1c0-48.7-6.5-87.1-9.1-100.8
					C446.5,65,370.8,2,282.3,2c-88.4,0-164.1,63-180,149.9v0.1c-2.6,13.8-9,52-9,100.7c0,17.1,0.8,33,2,46.9
					C96.6,299.2,98,298.7,99.4,298.3z"/>
				<path class="st0" d="M458.2,352.9c-15.5,84.8-89.5,146.4-175.8,146.4c-76.5,0-143.3-48.4-168.3-118.6c-1.5,0.4-2.9,0.8-4.2,1.1
					c25.5,72,93.9,121.8,172.5,121.8c88.4,0,164.1-63,180-149.9c0.6-3.2,1.5-8,2.4-13.9c-1.5,0-2.9,0-4.3-0.1
					C459.7,344.1,459,348.5,458.2,352.9z"/>
				<g>
					<path class="st0" d="M1,367c0,0,34-8.7,91.8-19.9l-0.5-1.9C35.1,357.4,1,367,1,367z"/>
				</g>
				<g>
					<path class="st0" d="M487.5,298.1l-0.2,2c24.9-1.1,50.3-1.8,76-2.1C537.8,297.4,512.5,297.5,487.5,298.1z"/>
				</g>
				<g>
					<path class="st0" d="M469.5,298.6c-0.1,0.8-0.1,1.6-0.2,2.4c6-0.3,12-0.6,18-0.9l0.2-2C481.5,298.2,475.5,298.4,469.5,298.6z"
						/>
				</g>
				<g>
					<path class="st0" d="M92.4,345.3l0.5,1.9c2.6-0.5,5.3-1,8.1-1.5c-0.1-0.7-0.2-1.3-0.3-2C97.8,344.1,95,344.7,92.4,345.3z"/>
				</g>
				<g>
					<path class="st0" d="M104.8,342.7c0.1,0.7,0.2,1.4,0.3,2.1c25.1-4.7,54.2-9.8,86.4-14.8v-3.3C159.2,332,130,337.5,104.8,342.7z
						"/>
				</g>
				<g>
					<path class="st0" d="M203.3,324.8v3.4c21.8-3.3,45-6.5,69.3-9.6v-3.8C248.3,317.9,225.1,321.3,203.3,324.8z"/>
				</g>
				<g>
					<path class="st0" d="M289.6,312.6v3.8c21.3-2.6,43.5-5,66.4-7.1v-3.7C333.2,307.7,311,310,289.6,312.6z"/>
				</g>
				<g>
					<path class="st0" d="M370.7,304.4v3.6c30.4-2.7,61.9-5.1,94.3-6.8c0.1-0.8,0.1-1.7,0.2-2.5
						C432.9,299.8,401.3,301.8,370.7,304.4z"/>
				</g>
				<g>
					<path class="st0" d="M100.5,343.6c0.1,0.7,0.2,1.4,0.3,2c1.4-0.3,2.8-0.5,4.2-0.8c-0.1-0.7-0.2-1.3-0.3-2.1
						C103.3,343,101.9,343.3,100.5,343.6z"/>
				</g>
				<g>
					<path class="st0" d="M465.2,298.7c-0.1,0.8-0.1,1.7-0.2,2.5c1.4-0.1,2.9-0.1,4.3-0.2c0.1-0.8,0.1-1.6,0.2-2.4
						C468.1,298.6,466.7,298.7,465.2,298.7z"/>
				</g>
			</g>
			<g>
				<path class="st0" d="M347.6,432.5c0,0,39.8-179.3,6-373.7c0,0-6.3,87.7-20.9,184.6c0,0-12.9,80.2-5.8,123
					C327,366.4,329.2,395.2,347.6,432.5z"/>
			</g>
			<g>
				<path class="st0" d="M351.6,432.2c24.8-89.7,25.7-177.4,25.7-177.4c-2-112.9-19.1-194.9-19.1-194.9s16.6,104.3,12.3,205.3
					C366.5,357.1,351.6,432.2,351.6,432.2z"/>
			</g>
		</g>
	</g>
</g>
</svg>
