<?xml version="1.0" encoding="utf-8"?>
<!-- Generator: Adobe Illustrator 27.5.0, SVG Export Plug-In . SVG Version: 6.00 Build 0)  -->
<svg version="1.2" baseProfile="tiny" id="Calque_1"
	 xmlns="http://www.w3.org/2000/svg" xmlns:xlink="http://www.w3.org/1999/xlink" x="0px" y="0px" viewBox="0 0 752.4 391.8"
	 overflow="visible" xml:space="preserve">
<path d="M439.3,391.8c-20.5-40-26.7-82.2-23.3-126.4c-8.6,1-16.8,1.9-24.9,2.8c-3,29.3-5.7,58.3-19.3,84.8c-0.2,0-0.5-0.1-0.7-0.1
	c1.4-104.8,2.9-209.6,4.3-314.4c12.3,74.6,20.1,149.5,16,225.5c3.8-0.4,7.6-0.8,11.3-1.2c3.8-0.4,7.5-0.9,11.3-1.2
	c1.5-0.1,2.2-0.6,2.3-2.2c1.5-24.8,4.7-49.5,8.3-74.1c3-20.5,5.6-41,8.2-61.6c2.2-17.7,4.2-35.4,6.1-53.1
	c1.7-16.2,3.1-32.5,4.7-48.8c0.7-7.3,1.3-14.6,1.9-21.9c2.3,4,10.6,73.6,12,97.2c1.9,32.9,2.9,65.7,2.3,98.6
	c-0.7,32.8-2.6,65.6-5.9,98.2C450.4,326.7,445.9,359.2,439.3,391.8z"/>
<path d="M301.1,0.3c0.2,3.1,0.4,6.2,0.6,9.3c1.2,18.8,2.3,37.6,3.8,56.4c1.5,19.7,3.3,39.3,5.2,59c1.7,17.4,3.6,34.8,5.5,52.3
	c1.6,14.7,3.6,29.3,4.9,44c1.4,16.3,2,32.6,3,48.9c0,0.8,0.1,1.6,0.1,2.7c8.2-1.1,16.2-2.2,24.4-3.4c-4.9-77.7,3.1-154.5,15.6-231
	c1.4,104.8,2.9,209.7,4.3,314.5c-0.3,0.1-0.5,0.2-0.8,0.2c-2.1-4.7-4.3-9.3-6.1-14.1c-5-13.5-7.8-27.5-9.8-41.7
	c-1.1-7.8-1.9-15.7-2.9-23.9c-8.2,1.1-16.4,2.2-24.8,3.3c1.1,40.5-7.2,78.8-26.6,114.6c-11.2-64.7-15.8-130-15.4-195.7
	C282.2,129.9,287.9,64.7,301.1,0.3z"/>
<path d="M452.4,10c1.8,11.3,3.8,22.5,5.2,33.8c2.4,18.2,4.7,36.5,6.6,54.8c1.6,15.7,2.8,31.5,3.7,47.3c1.1,18.9,1.9,37.8,2.3,56.7
	c0.2,10.4-0.6,20.8-1.2,31.1c-0.4,6.9-1,13.8-1.6,20.6c0,0.6,0,1.3,0,1.6c32-1.7,63.9-3.6,95.9-5c31.9-1.4,63.7-1.5,95.6-0.9
	c0,0.2,0,0.5,0,0.7c-8.2,0-16.5-0.3-24.7,0c-30.7,1.2-61.4,2.3-92.1,4c-23.1,1.3-46.2,3.3-69.3,5c-6.1,0.4-6,0.5-6.7,6.8
	c-3.8,36.7-9.8,73-18.7,108.9c-0.9,3.7-1.9,7.5-3.1,11.1c22.6-125.2,25.9-250.7,7-376.6C451.8,10.1,452.1,10.1,452.4,10z"/>
<path d="M292,385.4c-8.3-33.4-13.5-67.2-17-101.5c-61.6,9.6-122.7,20.9-183.4,34.6c60.3-15.5,121.4-27.8,183-38.1
	c-0.4-4.4-0.7-8.6-1.1-12.9c-2-27.4-3.9-54.8-1.7-82.3c1.8-22.4,3.3-44.9,5.6-67.2c3.1-31.2,7.7-62.1,13.5-92.9c0.9-5,2-10,3-15
	c0,0,0.1-0.1,0.8-0.5C272.8,135,272.8,260.1,292,385.4z"/>
<path d="M525,138.7c4.6,2.4,8.7,3.2,12.6-1.4c0.1,0.2,0.2,0.4,0.3,0.7c-0.5,1-0.8,2.1-1.4,3.1c-1.5,2.3-1.5,4.5,0.3,6.6
	c0.6,0.8,1,1.8,1.9,3.3c-2-0.9-3.6-1.5-5-2.3c-1.3-0.8-2.4-0.7-3.7,0.2s-2.8,1.6-4.8,2.7c0.9-2,1.5-3.5,2.3-4.8
	c0.9-1.5,0.8-2.7-0.2-4.1C526.4,141.5,525.8,140.1,525,138.7z"/>
<path d="M510.8,181.6c-2.8,1.3-4.7,3-4.3,6.5c-1.4-2.8-3-4.9-6.6-4.1c2.9-1.5,4.8-3.3,4.3-6.8C505.3,180.2,507.4,181.7,510.8,181.6z
	"/>
</svg>
