<?xml version="1.0" encoding="utf-8"?>
<!-- Generator: Adobe Illustrator 27.5.0, SVG Export Plug-In . SVG Version: 6.00 Build 0)  -->
<svg version="1.2" baseProfile="tiny" id="Calque_1"
	 xmlns="http://www.w3.org/2000/svg" xmlns:xlink="http://www.w3.org/1999/xlink" x="0px" y="0px" viewBox="0 0 752.4 679.8"
	 overflow="visible" xml:space="preserve">
<g>
	<path fill="#FFFFFF" d="M145.9,521.3v-49.2h33.3v8.7h-23.8v13.8H174v8.3h-18.6v18.4H145.9z"/>
	<path fill="#FFFFFF" d="M186.1,496.6c0-14.2,11.1-25.4,25.4-25.4s25.4,11.2,25.4,25.4c0,14.2-11.1,25.5-25.4,25.5
		S186.1,510.8,186.1,496.6z M227.4,496.7c0-9.3-7.2-16.3-15.8-16.3s-15.8,7.1-15.8,16.3S203,513,211.6,513
		C220.2,513,227.4,505.9,227.4,496.7z"/>
	<path fill="#FFFFFF" d="M250,521.3v-49.2h9.6l23.3,33.3v-33.3h9.3v49.2h-8.8l-24-34.2v34.2H250z"/>
	<path fill="#FFFFFF" d="M308.1,521.3v-49.2h17.7c14.3,0,25.7,10.6,25.7,24.6c0,13.9-11.3,24.6-25.6,24.6H308.1z M317.6,512.3h8.7
		c8.9,0,15.6-6.6,15.6-15.6c0-8.9-6.8-15.6-15.8-15.6h-8.6L317.6,512.3L317.6,512.3z"/>
	<path fill="#FFFFFF" d="M393.6,521.3l-3.4-9.3h-20.6l-3.4,9.3h-9.8l19.4-49.2h8.4l19.3,49.2H393.6z M372.6,503.7h14.6l-6.9-18.8
		l-0.5-1.7l-0.5,1.7L372.6,503.7z"/>
	<path fill="#FFFFFF" d="M419.4,521.3V481H405v-8.9h38.4v8.9h-14.5v40.3H419.4z"/>
	<path fill="#FFFFFF" d="M455.2,521.3v-49.2h9.5v49.2H455.2z"/>
	<path fill="#FFFFFF" d="M477.7,496.6c0-14.2,11.1-25.4,25.4-25.4c14.3,0,25.4,11.2,25.4,25.4c0,14.2-11.1,25.5-25.4,25.5
		S477.7,510.8,477.7,496.6z M519,496.7c0-9.3-7.2-16.3-15.8-16.3s-15.8,7.1-15.8,16.3s7.3,16.3,15.8,16.3
		C511.8,513,519,505.9,519,496.7z"/>
	<path fill="#FFFFFF" d="M541.6,521.3v-49.2h9.6l23.3,33.3v-33.3h9.3v49.2H575L551,487v34.2L541.6,521.3L541.6,521.3z"/>
	<path fill="#FFFFFF" d="M0,596.9l5.2-6.8c2.2,1.9,4.6,3,6.5,3c3.3,0,5.5-2.1,5.5-6.3V552h9.5v35.4c0,9.1-5.7,14.8-14.9,14.8
		C8,602.3,3.6,600.3,0,596.9z"/>
	<path fill="#FFFFFF" d="M71.2,601.3l-3.4-9.3H47.1l-3.4,9.3h-9.8L53.3,552h8.4L81,601.3H71.2z M50.2,583.7h14.6L57.9,565l-0.5-1.7
		L57,565L50.2,583.7z"/>
	<path fill="#FFFFFF" d="M86.2,576.6c0-14.2,11.1-25.4,25.4-25.4c6.5,0,12.3,2.3,16.6,6.1l-5.4,7.2c-2.9-2.4-7-4.1-11.3-4.1
		c-8.6,0-15.8,7.1-15.8,16.3S103,593,111.5,593c4.3,0,7.7-1.4,11.4-4.3l5.3,7.2c-4.4,3.7-10.1,6.1-16.6,6.1
		C97.3,602.1,86.2,590.8,86.2,576.6z"/>
	<path fill="#FFFFFF" d="M165.8,601.7v9.9h-9.5v-9.9c-11.9-2.2-20.6-12.5-20.6-25c0-14.2,11.1-25.4,25.4-25.4s25.4,11.2,25.4,25.4
		C186.6,589.2,177.8,599.6,165.8,601.7z M177,576.7c0-9.3-7.2-16.3-15.8-16.3s-15.8,7.1-15.8,16.3s7.3,16.3,15.8,16.3
		C169.8,593,177,585.9,177,576.7z"/>
	<path fill="#FFFFFF" d="M198.5,581.2v-29.1h9.5v28c0,7.8,4,13.3,11.2,13.3s11.2-5.5,11.2-13.3v-28h9.5v29.1
		c0,12.1-7.5,21.1-20.7,21.1C205.9,602.3,198.5,593.3,198.5,581.2z"/>
	<path fill="#FFFFFF" d="M254.6,601.3v-49.2h35.1v8.7h-25.6v11.4h20.5v8.2h-20.5v12.1h26.1v8.7L254.6,601.3L254.6,601.3z"/>
	<path fill="#FFFFFF" d="M298.4,593.2l6.1-6.2c3.8,4.1,8.7,6.2,13.7,6.2c5.2,0,8.5-2.2,8.5-6.1c0-3.9-3.3-5.4-10.7-7.5
		c-6.4-1.8-14.8-4.9-14.8-14.5c0-7.5,5.7-13.9,16.8-13.9c7,0,12.9,2.5,17.4,6.7l-5.4,6.5c-2.7-2.5-7.2-4.5-11.6-4.5
		c-4.5,0-7.8,2.1-7.8,5.6c0,3.6,4.1,4.7,9.9,6.5c9,2.9,15.8,6.3,15.8,14.9c0,9.3-7.5,15.1-18,15.1C310.7,602,303.5,599,298.4,593.2z
		"/>
	<path fill="#FFFFFF" d="M408.2,601.3h-10.7l-7.7-16.6c-0.8,0-1.5,0.1-2.3,0.1h-8.2v16.5h-9.5v-49.2H390c10.1,0,16.9,6.6,16.9,16.3
		c0,6.7-3.2,11.3-8.1,13.8L408.2,601.3z M379.2,576.3h10c4.9,0,8.1-3.2,8.1-7.8c0-4.8-3.5-7.6-8.1-7.6h-10V576.3z"/>
	<path fill="#FFFFFF" d="M416.4,576.6c0-14.2,11.1-25.4,25.4-25.4s25.4,11.2,25.4,25.4s-11.1,25.5-25.4,25.5
		S416.4,590.8,416.4,576.6z M457.7,576.7c0-9.3-7.2-16.3-15.8-16.3s-15.8,7.1-15.8,16.3s7.3,16.3,15.8,16.3
		C450.5,593,457.7,585.9,457.7,576.7z"/>
	<path fill="#FFFFFF" d="M479.2,581.2v-29.1h9.5v28c0,7.8,4,13.3,11.2,13.3s11.2-5.5,11.2-13.3v-28h9.5v29.1
		c0,12.1-7.5,21.1-20.7,21.1C486.6,602.3,479.2,593.3,479.2,581.2z"/>
	<path fill="#FFFFFF" d="M565.7,578.8h9v17.9c-4.5,3.5-10.6,5.5-16.8,5.5c-14.3,0-25.4-11.4-25.4-25.6s11.1-25.4,25.4-25.4
		c6.4,0,12.2,2.3,16.6,6.1l-5.6,7.2c-2.9-2.4-6.8-4.2-11-4.2c-8.6,0-15.9,7.1-15.9,16.3s7.3,16.6,15.9,16.6c2.7,0,5.3-0.5,7.8-1.6
		V578.8z"/>
	<path fill="#FFFFFF" d="M588.3,601.3v-49.2h35.1v8.7h-25.6v11.4h20.5v8.2h-20.5v12.1h26.1v8.7L588.3,601.3L588.3,601.3z"/>
	<path fill="#FFFFFF" d="M675.4,601.3h-10.7l-7.7-16.6c-0.8,0-1.5,0.1-2.3,0.1h-8.2v16.5H637v-49.2h20.3c10.1,0,16.9,6.6,16.9,16.3
		c0,6.7-3.2,11.3-8.1,13.8L675.4,601.3z M646.4,576.3h10c4.9,0,8.1-3.2,8.1-7.8c0-4.8-3.5-7.6-8.1-7.6h-10V576.3z"/>
	<path fill="#FFFFFF" d="M687.3,601.3v-49.2h9.5v49.2H687.3z"/>
	<path fill="#FFFFFF" d="M712.6,601.3v-49.2h35.1v8.7h-25.6v11.4h20.5v8.2h-20.5v12.1h26.1v8.7L712.6,601.3L712.6,601.3z"/>
</g>
<g>
	<path fill="#FFFFFF" d="M100.4,673.6v-35.1h2.6v35.1H100.4z"/>
	<path fill="#FFFFFF" d="M116.2,673.6v-35.1h2.5l23.9,30.8v-30.8h2.6v35.1h-2.4l-23.9-30.8v30.8H116.2z"/>
	<path fill="#FFFFFF" d="M154.4,668l1.7-1.7c2.8,3.4,7.5,5.2,11.9,5.2c5.2,0,9.6-2.4,9.6-7.4c0-4.9-5.1-6.2-10.7-7.6
		c-5.4-1.3-11.3-3-11.3-9.3c0-5.6,5.3-9.1,12-9.1c4.2,0,8.4,1.4,11.4,4.2l-1.6,1.8c-2.5-2.3-6.2-3.6-9.8-3.6c-5.1,0-9.5,2.5-9.5,6.8
		c0,4.6,4.6,5.7,9.8,7c6,1.6,12.2,3.3,12.2,9.8s-5.7,9.9-12.3,9.9C162.9,674,157.6,672,154.4,668z"/>
	<path fill="#FFFFFF" d="M197.5,673.6V641h-11.9v-2.5H212v2.5h-12v32.6H197.5z"/>
	<path fill="#FFFFFF" d="M221.2,673.6v-35.1h2.6v35.1H221.2z"/>
	<path fill="#FFFFFF" d="M244.9,673.6V641H233v-2.5h26.5v2.5h-12v32.6H244.9z"/>
	<path fill="#FFFFFF" d="M267.6,658.6v-20.1h2.6v20c0,7.8,4,13.3,11.6,13.3c7.5,0,11.5-5.4,11.5-13.3v-20h2.6v20.1
		c0,9.2-5,15.6-14.1,15.6C272.7,674.2,267.6,667.7,267.6,658.6z"/>
	<path fill="#FFFFFF" d="M316.1,673.6V641h-11.9v-2.5h26.5v2.5h-12v32.6H316.1z"/>
	<path fill="#FFFFFF" d="M354.6,673.6v-35.1h11.6c10,0,18,7.7,18,17.6c0,9.8-7.9,17.5-17.9,17.5H354.6z M357.2,671.1h9.2
		c8.5,0,15.2-6.6,15.2-15c0-8.5-6.8-15.1-15.4-15.1h-9L357.2,671.1L357.2,671.1z"/>
	<path fill="#FFFFFF" d="M394.9,673.6v-35.1h24.2v2.5h-21.6v13.3h17.8v2.5h-17.8v14.4h22v2.5h-24.6V673.6z"/>
	<path fill="#FFFFFF" d="M445.6,673.6v-35.1h23.1v2.5h-20.5v14.6h16.6v2.4h-16.6v15.6H445.6z"/>
	<path fill="#FFFFFF" d="M496.5,659.7l6.4,13.8H500l-6-13.1c-0.9,0.1-1.8,0.2-2.8,0.2h-10.1v12.9h-2.6v-35.1h13.2
		c7,0,11.5,4.3,11.5,11.1C503.2,654.7,500.6,658.2,496.5,659.7z M481.1,658.1h10.4c5.6,0,9.1-3.3,9.1-8.6s-3.5-8.6-9.1-8.6h-10.4
		V658.1z"/>
	<path fill="#FFFFFF" d="M537.3,673.6l-3.6-9.1h-18.3l-3.6,9.1h-2.7l14.3-35.1h2.5l14.3,35.1H537.3z M516.2,662h16.4l-8-20.1
		l-0.1-0.4l-0.2,0.4L516.2,662z"/>
	<path fill="#FFFFFF" d="M548.6,673.6v-35.1h2.5l23.9,30.8v-30.8h2.6v35.1h-2.5l-23.9-30.8v30.8H548.6z"/>
	<path fill="#FFFFFF" d="M588.3,656c0-10.2,8-18.1,18-18.1c4.7,0,8.8,1.8,11.9,4.4l-1.5,1.9c-2.8-2.3-6.4-3.8-10.4-3.8
		c-8.5,0-15.4,6.8-15.4,15.6s6.9,15.6,15.4,15.6c4,0,7.5-1.5,10.4-4l1.5,2c-3.1,2.6-7.1,4.5-11.9,4.5
		C596.2,674.1,588.3,666.2,588.3,656z"/>
	<path fill="#FFFFFF" d="M628.2,673.6v-35.1h24.2v2.5h-21.6v13.3h17.8v2.5h-17.8v14.4h22v2.5h-24.6L628.2,673.6L628.2,673.6z"/>
</g>
<path fill="#FFFFFF" d="M438.7,391.9c-20.5-40-26.7-82.2-23.3-126.4c-8.6,1-16.8,1.9-24.9,2.8c-3,29.3-5.7,58.3-19.3,84.8
	c-0.2,0-0.5-0.1-0.7-0.1c1.4-104.8,2.9-209.6,4.3-314.4c12.3,74.6,20.1,149.5,16,225.5c3.8-0.4,7.6-0.8,11.3-1.2
	c3.8-0.4,7.5-0.9,11.3-1.2c1.5-0.1,2.2-0.6,2.3-2.2c1.5-24.8,4.7-49.5,8.3-74.1c3-20.5,5.6-41,8.2-61.6c2.2-17.7,4.2-35.4,6.1-53.1
	c1.7-16.2,3.1-32.5,4.7-48.8c0.7-7.3,1.3-14.6,1.9-21.9c2.3,4,10.6,73.6,12,97.2c1.9,32.9,2.9,65.7,2.3,98.6
	c-0.7,32.8-2.6,65.6-5.9,98.2C449.8,326.8,445.3,359.3,438.7,391.9z"/>
<path fill="#FFFFFF" d="M300.5,0.4c0.2,3.1,0.4,6.2,0.6,9.3c1.2,18.8,2.3,37.6,3.8,56.4c1.5,19.7,3.3,39.3,5.2,59
	c1.7,17.4,3.6,34.8,5.5,52.3c1.6,14.7,3.6,29.3,4.9,44c1.4,16.3,2,32.6,3,48.9c0,0.8,0.1,1.6,0.1,2.7c8.2-1.1,16.2-2.2,24.4-3.4
	c-4.9-77.7,3.1-154.5,15.6-231c1.4,104.8,2.9,209.7,4.3,314.5c-0.3,0.1-0.5,0.2-0.8,0.2c-2.1-4.7-4.3-9.3-6.1-14.1
	c-5-13.5-7.8-27.5-9.8-41.7c-1.1-7.8-1.9-15.7-2.9-23.9c-8.2,1.1-16.4,2.2-24.8,3.3c1.1,40.5-7.2,78.8-26.6,114.6
	c-11.2-64.7-15.8-130-15.4-195.7C281.6,130,287.3,64.8,300.5,0.4z"/>
<path fill="#FFFFFF" d="M451.8,10.1c1.8,11.3,3.8,22.5,5.2,33.8c2.4,18.2,4.7,36.5,6.6,54.8c1.6,15.7,2.8,31.5,3.7,47.3
	c1.1,18.9,1.9,37.8,2.3,56.7c0.2,10.4-0.6,20.8-1.2,31.1c-0.4,6.9-1,13.8-1.6,20.6c0,0.6,0,1.3,0,1.6c32-1.7,63.9-3.6,95.9-5
	c31.9-1.4,63.7-1.5,95.6-0.9c0,0.2,0,0.5,0,0.7c-8.2,0-16.5-0.3-24.7,0c-30.7,1.2-61.4,2.3-92.1,4c-23.1,1.3-46.2,3.3-69.3,5
	c-6.1,0.4-6,0.5-6.7,6.8c-3.8,36.7-9.8,73-18.7,108.9c-0.9,3.7-1.9,7.5-3.1,11.1c22.6-125.2,25.9-250.7,7-376.6
	C451.2,10.2,451.5,10.2,451.8,10.1z"/>
<path fill="#FFFFFF" d="M291.4,385.5c-8.3-33.4-13.5-67.2-17-101.5c-61.6,9.6-122.7,20.9-183.4,34.6c60.3-15.5,121.4-27.8,183-38.1
	c-0.4-4.4-0.7-8.6-1.1-12.9c-2-27.4-3.9-54.8-1.7-82.3c1.8-22.4,3.3-44.9,5.6-67.2c3.1-31.2,7.7-62.1,13.5-92.9c0.9-5,2-10,3-15
	c0,0,0.1-0.1,0.8-0.5C272.2,135.1,272.2,260.2,291.4,385.5z"/>
<path fill="#FFFFFF" d="M524.4,138.8c4.6,2.4,8.7,3.2,12.6-1.4c0.1,0.2,0.2,0.4,0.3,0.7c-0.5,1-0.8,2.1-1.4,3.1
	c-1.5,2.3-1.5,4.5,0.3,6.6c0.6,0.8,1,1.8,1.9,3.3c-2-0.9-3.6-1.5-5-2.3c-1.3-0.8-2.4-0.7-3.7,0.2s-2.8,1.6-4.8,2.7
	c0.9-2,1.5-3.5,2.3-4.8c0.9-1.5,0.8-2.7-0.2-4.1C525.8,141.6,525.2,140.2,524.4,138.8z"/>
<path fill="#FFFFFF" d="M510.2,181.7c-2.8,1.3-4.7,3-4.3,6.5c-1.4-2.8-3-4.9-6.6-4.1c2.9-1.5,4.8-3.3,4.3-6.8
	C504.7,180.3,506.8,181.8,510.2,181.7z"/>
</svg>
