<?xml version="1.0" standalone="no"?>
<!DOCTYPE svg PUBLIC "-//W3C//DTD SVG 20010904//EN"
 "http://www.w3.org/TR/2001/REC-SVG-20010904/DTD/svg10.dtd">
<svg version="1.0" xmlns="http://www.w3.org/2000/svg"
 width="1130.000000pt" height="1130.000000pt" viewBox="0 0 1130.000000 1130.000000"
 preserveAspectRatio="xMidYMid meet">
<metadata>
Created by potrace 1.14, written by Peter Selinger 2001-2017
</metadata>
<g transform="translate(0.000000,1130.000000) scale(0.100000,-0.100000)"
fill="#000000" stroke="none">
<path d="M7030 9510 c-1 -25 -3 -53 -5 -63 -2 -10 -6 -59 -10 -110 -12 -160
-21 -262 -30 -337 -3 -25 -8 -70 -10 -100 -3 -30 -7 -77 -10 -105 -3 -27 -7
-72 -9 -100 -2 -27 -7 -79 -11 -115 -3 -36 -8 -87 -11 -115 -2 -27 -6 -70 -9
-95 -3 -25 -7 -70 -10 -100 -2 -30 -7 -75 -10 -100 -3 -25 -8 -65 -10 -90 -3
-25 -7 -65 -10 -90 -3 -25 -8 -70 -11 -100 -8 -74 -10 -95 -18 -165 -4 -33 -9
-78 -11 -100 -2 -22 -6 -60 -10 -85 -7 -55 -12 -96 -21 -175 -3 -33 -8 -73
-10 -90 -2 -16 -6 -50 -9 -75 -3 -25 -7 -58 -9 -75 -3 -16 -8 -55 -11 -85 -4
-30 -9 -66 -11 -80 -2 -14 -6 -50 -9 -80 -3 -30 -8 -66 -10 -80 -5 -26 -11
-70 -21 -155 -3 -27 -7 -61 -9 -75 -2 -14 -6 -47 -10 -75 -3 -27 -8 -61 -10
-75 -2 -14 -7 -45 -9 -70 -3 -25 -7 -54 -10 -65 -2 -11 -7 -49 -11 -85 -3 -36
-8 -72 -10 -80 -2 -8 -7 -37 -10 -65 -3 -27 -7 -61 -10 -75 -6 -28 -10 -59
-20 -145 -3 -33 -9 -69 -12 -80 -4 -11 -7 -31 -8 -45 -1 -14 -5 -43 -9 -65 -6
-38 -15 -101 -20 -155 -5 -41 -18 -144 -22 -165 -2 -11 -6 -45 -9 -75 -4 -30
-8 -71 -11 -90 -7 -59 -16 -133 -20 -170 -2 -19 -6 -64 -10 -100 -4 -36 -7
-84 -8 -107 -1 -24 -3 -43 -6 -43 -3 0 -6 -19 -6 -43 -1 -23 -4 -80 -8 -127
-4 -47 -9 -114 -12 -150 -3 -41 -10 -69 -20 -76 -8 -7 -49 -15 -92 -19 -42 -3
-90 -8 -107 -11 -16 -2 -52 -6 -80 -8 -27 -3 -77 -8 -110 -12 -69 -7 -66 -7
-81 -5 -8 1 -13 96 -5 96 1 0 5 92 8 205 16 531 1 1284 -33 1710 -4 41 -8 100
-9 130 -4 75 -15 217 -20 265 -2 22 -7 74 -10 115 -3 41 -8 89 -10 105 -4 35
-14 121 -20 185 -6 71 -16 162 -21 200 -2 19 -7 58 -10 85 -3 28 -7 61 -9 75
-2 14 -6 52 -10 85 -3 33 -8 72 -11 86 -2 15 -6 45 -9 68 -3 23 -7 58 -10 78
-3 21 -7 56 -10 78 -8 61 -16 117 -20 146 -5 27 -12 76 -20 144 -3 22 -7 50
-9 62 -3 11 -7 43 -11 70 -3 26 -10 71 -15 98 -5 28 -11 68 -14 90 -3 22 -7
49 -10 60 -2 11 -7 40 -10 65 -4 25 -8 54 -10 65 -3 11 -5 32 -5 48 -1 15 -5
27 -9 27 -5 0 -10 -87 -11 -192 -2 -106 -4 -287 -6 -403 -9 -633 -17 -1213
-20 -1466 -1 -158 -5 -291 -9 -297 -3 -6 -2 -13 4 -17 6 -4 8 -10 5 -15 -3 -5
-8 -186 -10 -402 -3 -216 -7 -544 -10 -728 -3 -184 -7 -508 -10 -720 -3 -212
-7 -530 -9 -708 -2 -178 -6 -326 -9 -329 -3 -3 -2 -15 3 -28 5 -13 7 -25 4
-28 -3 -3 -7 -207 -10 -453 -4 -313 -2 -446 5 -439 18 18 106 224 146 340 20
61 40 117 43 125 3 8 6 20 8 27 1 6 16 65 33 130 17 65 32 129 35 143 2 14 5
25 6 25 1 0 3 14 5 30 1 17 10 73 19 125 24 134 33 195 41 270 2 24 7 59 9 79
5 35 16 132 21 181 1 14 6 57 10 95 4 39 8 81 9 94 2 29 24 37 119 45 86 7
157 15 192 20 17 3 62 8 100 11 39 4 75 8 80 8 6 1 9 -9 8 -23 -11 -162 -14
-247 -13 -430 0 -118 2 -240 5 -270 2 -30 6 -91 9 -135 6 -102 20 -212 41
-345 5 -31 32 -184 40 -225 15 -77 69 -293 82 -322 7 -18 11 -33 9 -33 -3 0 2
-19 10 -42 9 -24 17 -52 20 -63 2 -11 8 -29 13 -40 5 -11 19 -47 30 -80 45
-137 207 -505 221 -505 4 0 7 6 7 13 0 6 3 26 7 42 3 17 8 44 11 60 4 25 11
57 20 95 2 10 17 96 21 125 2 17 7 41 9 55 18 86 20 101 35 195 16 94 18 106
24 135 3 14 8 45 11 70 3 25 8 56 10 70 2 14 6 43 9 65 3 22 8 54 10 70 3 17
7 48 10 70 3 22 9 69 15 105 6 36 13 88 16 115 3 28 8 65 11 83 6 48 15 122
19 162 5 40 14 118 21 170 4 36 8 72 19 175 3 33 8 75 10 94 2 18 7 65 10 105
3 39 7 89 10 111 8 74 16 157 20 229 3 39 7 94 10 121 2 28 7 88 10 135 3 47
8 121 10 165 9 134 15 245 20 345 2 52 6 147 9 210 24 485 25 1339 1 1868 -3
74 -8 180 -10 235 -2 56 -4 102 -5 102 -1 0 -3 43 -5 95 -5 138 -20 349 -30
440 -2 19 -7 69 -10 110 -3 41 -8 86 -10 100 -2 14 -7 57 -10 96 -3 40 -7 87
-10 105 -2 19 -6 59 -10 89 -3 30 -8 73 -12 95 -3 22 -7 54 -8 70 -8 66 -16
142 -20 170 -17 145 -35 286 -41 325 -3 19 -7 55 -10 80 -3 25 -7 52 -9 60 -2
8 -7 40 -11 70 -10 86 -12 99 -30 195 -20 110 -33 138 -34 75z"/>
<path d="M4139 9514 c0 -10 -2 -26 -4 -34 -2 -8 -7 -28 -10 -45 -3 -16 -12
-64 -20 -105 -20 -103 -24 -126 -35 -190 -6 -30 -12 -66 -15 -80 -3 -14 -7
-38 -9 -55 -3 -16 -8 -46 -11 -65 -4 -19 -8 -46 -10 -60 -2 -14 -6 -36 -9 -50
-3 -14 -8 -45 -11 -70 -3 -25 -8 -57 -10 -72 -9 -53 -14 -83 -20 -128 -3 -25
-8 -56 -10 -70 -3 -14 -7 -45 -10 -70 -6 -53 -14 -108 -19 -135 -4 -22 -18
-145 -22 -185 -1 -14 -2 -25 -3 -25 -2 0 -4 -16 -5 -35 -3 -31 -7 -67 -21
-190 -2 -19 -7 -64 -10 -100 -4 -36 -8 -76 -10 -90 -2 -14 -7 -63 -11 -110 -3
-47 -8 -101 -9 -120 -2 -19 -6 -69 -9 -110 -4 -41 -8 -100 -11 -130 -5 -66
-14 -204 -30 -500 -16 -280 -19 -511 -19 -1170 0 -744 4 -951 28 -1345 3 -38
7 -117 11 -175 3 -58 8 -127 10 -155 3 -27 7 -89 10 -136 5 -87 11 -162 21
-259 2 -30 7 -80 9 -110 3 -30 7 -77 10 -105 3 -27 7 -66 9 -85 2 -19 7 -64
11 -100 3 -36 8 -81 10 -100 2 -19 6 -55 9 -80 3 -25 7 -61 10 -80 3 -19 8
-62 12 -95 3 -33 8 -69 9 -80 6 -43 17 -122 20 -155 2 -19 6 -45 9 -57 2 -12
7 -46 10 -75 4 -29 8 -64 11 -78 3 -14 7 -36 9 -50 3 -14 8 -47 11 -75 3 -27
8 -63 11 -80 3 -16 7 -41 9 -55 2 -14 5 -34 8 -45 2 -11 10 -59 17 -108 7 -48
16 -87 19 -87 4 0 11 9 16 20 6 11 32 64 58 118 123 247 264 625 317 852 12
52 25 102 27 110 3 8 7 22 8 30 1 8 7 40 13 70 6 30 13 66 16 80 2 14 7 43 11
65 4 22 9 49 11 60 2 11 6 40 9 65 3 25 7 61 10 80 2 19 7 60 10 90 3 30 8 75
11 100 2 25 7 155 10 290 4 135 7 246 8 247 2 2 64 11 121 18 71 8 105 12 145
19 59 10 112 16 173 22 l57 5 1 -43 c0 -24 2 -52 5 -63 2 -11 6 -45 9 -75 3
-30 8 -64 9 -76 2 -11 7 -52 11 -90 4 -38 9 -78 11 -89 2 -11 7 -40 10 -65 3
-25 9 -61 13 -80 4 -20 7 -43 5 -53 -1 -9 2 -17 7 -17 6 0 7 -4 4 -10 -3 -5
-1 -27 4 -47 5 -21 12 -56 16 -78 6 -45 74 -319 88 -355 3 -8 17 -51 31 -95
38 -116 139 -347 151 -343 11 3 11 8 2 695 -3 237 -8 436 -12 442 -3 6 -3 11
2 11 4 0 7 19 5 42 -1 24 -4 189 -7 368 -5 358 -11 841 -20 1490 -4 234 -8
554 -9 711 -2 158 -6 291 -10 297 -3 6 -2 13 4 17 7 4 7 12 0 25 -7 13 -7 21
0 25 6 4 7 13 1 24 -6 10 -6 23 -1 31 5 8 6 18 3 24 -4 5 -7 125 -9 265 -2
289 -20 1617 -23 1719 -1 12 -5 22 -9 22 -4 0 -9 -10 -9 -22 -2 -31 -12 -101
-24 -157 -5 -25 -11 -66 -13 -91 -3 -25 -7 -56 -10 -69 -3 -13 -8 -49 -12 -80
-3 -31 -8 -58 -9 -61 -2 -3 -6 -28 -9 -55 -4 -28 -8 -59 -10 -71 -2 -12 -7
-45 -11 -75 -3 -30 -8 -66 -10 -80 -9 -50 -16 -104 -19 -134 -2 -16 -6 -48
-10 -70 -3 -22 -8 -60 -11 -85 -5 -50 -13 -116 -20 -171 -6 -37 -11 -84 -20
-174 -5 -46 -7 -65 -20 -165 -2 -19 -7 -64 -10 -100 -3 -36 -8 -81 -10 -100
-3 -19 -7 -64 -10 -100 -3 -36 -8 -90 -10 -120 -5 -53 -9 -99 -19 -225 -8 -89
-16 -218 -21 -299 -2 -39 -6 -116 -10 -171 -15 -243 -17 -342 -17 -880 0 -313
0 -578 1 -587 0 -10 1 -24 0 -30 -1 -18 10 -241 15 -310 3 -32 2 -60 -2 -62
-8 -5 -67 -14 -132 -21 -23 -2 -50 -7 -59 -9 -9 -3 -41 -7 -71 -10 -30 -3 -66
-8 -80 -11 -14 -3 -51 -8 -82 -11 l-58 -6 -1 38 c0 22 -2 59 -3 84 -2 25 -7
106 -10 180 -4 74 -9 161 -11 192 -3 32 -7 104 -10 160 -4 57 -8 128 -10 158
-2 30 -6 93 -9 140 -3 47 -8 101 -11 120 -4 33 -14 127 -20 195 -3 37 -15 139
-20 180 -2 17 -7 57 -10 90 -3 33 -8 71 -10 85 -3 14 -7 50 -10 80 -4 30 -8
73 -11 95 -3 22 -7 60 -9 85 -6 66 -15 142 -20 170 -2 14 -7 52 -10 85 -5 59
-11 120 -20 200 -2 22 -7 65 -10 95 -12 121 -16 156 -20 180 -3 14 -7 59 -10
100 -2 41 -7 85 -9 98 -3 13 -8 58 -11 100 -4 42 -8 93 -10 112 -3 19 -7 62
-9 95 -3 33 -7 80 -10 105 -3 25 -8 79 -11 120 -3 41 -8 93 -11 115 -3 22 -7
69 -9 105 -2 36 -6 85 -9 110 -2 25 -7 75 -10 113 -3 37 -9 95 -12 130 -3 34
-7 89 -9 122 -3 33 -7 83 -9 110 -2 28 -7 95 -10 150 -4 55 -9 118 -11 140 -4
39 -14 178 -20 300 -2 33 -6 98 -9 145 -10 142 -16 231 -21 320 -9 157 -14
212 -20 218 -3 3 -5 -3 -6 -14z"/>
<path d="M4006 9352 c-5 -8 -15 -52 -21 -97 -2 -11 -8 -40 -14 -65 -5 -25 -12
-58 -15 -75 -3 -16 -8 -41 -11 -55 -2 -13 -7 -40 -10 -60 -3 -20 -8 -46 -10
-58 -3 -12 -7 -30 -9 -39 -4 -19 -24 -133 -30 -173 -3 -14 -5 -25 -6 -25 -1 0
-3 -16 -5 -35 -2 -19 -6 -48 -9 -65 -4 -16 -9 -46 -12 -65 -3 -19 -7 -46 -10
-60 -2 -14 -7 -41 -10 -60 -3 -19 -7 -46 -10 -60 -2 -14 -6 -43 -9 -65 -3 -22
-7 -51 -10 -65 -7 -37 -14 -82 -19 -121 -11 -85 -19 -136 -22 -154 -3 -11 -7
-45 -10 -75 -10 -94 -23 -202 -30 -240 -2 -14 -7 -50 -9 -80 -3 -30 -7 -66
-10 -80 -2 -14 -7 -52 -10 -85 -3 -33 -8 -80 -11 -105 -19 -184 -22 -218 -29
-300 -3 -36 -7 -83 -10 -105 -2 -22 -7 -78 -10 -125 -3 -47 -8 -101 -10 -120
-4 -35 -10 -107 -21 -250 -3 -41 -7 -100 -10 -130 -2 -30 -6 -80 -8 -110 -14
-199 -17 -238 -21 -265 -24 -177 -25 -1025 -1 -1063 4 -7 2 -12 -4 -12 -6 0
-9 -4 -6 -8 3 -4 8 -57 11 -118 3 -60 8 -129 10 -154 5 -53 15 -209 21 -295 2
-33 5 -80 8 -105 12 -106 15 -170 8 -174 -4 -3 -26 -7 -47 -10 -22 -3 -51 -7
-65 -10 -14 -3 -54 -10 -90 -16 -36 -5 -75 -12 -86 -14 -12 -2 -37 -7 -55 -10
-19 -3 -43 -7 -54 -10 -11 -2 -40 -7 -65 -11 -82 -13 -94 -16 -225 -40 -71
-14 -148 -27 -170 -31 -22 -3 -60 -10 -85 -15 -25 -5 -58 -12 -75 -14 -16 -2
-41 -7 -55 -10 -31 -6 -116 -23 -152 -30 -16 -3 -40 -7 -55 -10 -16 -3 -53
-11 -83 -17 -30 -6 -64 -13 -75 -14 -11 -1 -31 -5 -45 -8 -49 -11 -87 -19
-150 -31 -14 -3 -36 -7 -50 -10 -14 -3 -38 -8 -55 -11 -44 -8 -60 -12 -60 -14
0 -1 -11 -3 -25 -5 -29 -4 -50 -8 -145 -29 -39 -8 -82 -17 -95 -20 -14 -2 -79
-16 -145 -31 -66 -14 -131 -28 -145 -31 -40 -8 -62 -13 -105 -23 -22 -5 -51
-12 -65 -15 -61 -12 -256 -57 -270 -63 -8 -3 -28 -7 -45 -9 -16 -3 -52 -11
-80 -19 -27 -7 -61 -16 -75 -18 -14 -3 -74 -17 -134 -32 -59 -15 -116 -28
-125 -30 -54 -11 -117 -29 -124 -35 -5 -4 29 1 75 12 45 11 94 21 108 23 14 2
25 4 25 5 0 2 19 6 60 13 17 3 37 8 45 11 8 3 29 7 45 9 17 3 86 17 155 32 69
15 136 29 150 31 14 3 65 14 113 24 49 11 92 19 95 19 4 -1 9 0 12 1 6 2 27 7
65 14 17 3 39 8 50 10 45 9 232 45 265 51 19 3 42 8 51 11 10 2 30 6 45 9 16
2 50 8 77 14 26 6 64 14 85 17 20 3 44 7 52 9 8 3 32 7 54 11 21 3 48 8 60 10
11 2 48 9 81 15 91 15 100 17 100 19 0 1 11 3 25 5 14 1 52 8 85 14 33 6 69
13 80 15 29 5 108 19 125 22 8 1 31 5 50 8 19 4 49 8 65 11 17 2 41 6 55 9 13
3 42 8 64 12 22 3 43 7 46 9 4 2 28 6 56 10 27 3 56 7 64 10 8 2 33 7 55 10
23 3 52 8 65 11 28 5 65 11 125 19 22 2 51 7 65 10 42 9 72 14 115 20 22 3 65
10 95 15 30 6 75 13 100 16 25 3 56 7 70 10 14 2 41 7 60 10 19 3 41 7 48 9 7
3 12 -6 13 -23 1 -15 2 -38 4 -52 11 -89 16 -140 20 -179 2 -24 6 -60 9 -80 3
-20 8 -56 11 -81 2 -25 7 -56 9 -70 2 -14 8 -52 11 -85 9 -74 11 -88 20 -145
3 -25 8 -61 11 -80 3 -19 9 -60 14 -90 5 -30 11 -68 14 -85 2 -16 8 -50 12
-75 4 -25 8 -54 10 -65 1 -11 7 -45 13 -75 6 -30 12 -66 15 -80 2 -14 12 -63
21 -110 9 -47 19 -98 22 -114 2 -16 11 -59 19 -95 8 -36 17 -77 20 -91 2 -14
9 -45 14 -70 6 -25 12 -54 15 -65 16 -73 34 -137 40 -143 3 -4 4 4 1 18 -13
52 -35 223 -31 231 3 4 1 10 -5 14 -6 4 -8 10 -6 13 2 4 1 28 -4 52 -5 25 -11
72 -15 105 -4 33 -8 71 -10 85 -12 82 -23 166 -30 235 -10 92 -14 120 -20 160
-3 22 -7 60 -10 85 -2 25 -6 70 -9 100 -4 30 -8 76 -10 102 -2 25 -7 70 -11
100 -3 29 -8 78 -10 108 -2 30 -6 82 -10 115 -6 72 -15 180 -20 255 -2 30 -6
89 -9 130 -5 73 -11 155 -21 312 -5 71 -8 149 -20 413 -23 534 -23 1376 0
1855 2 47 7 139 10 205 6 148 12 234 31 520 9 117 11 150 13 150 1 0 4 36 6
80 5 76 7 106 19 220 3 28 8 79 11 115 4 36 8 81 10 100 3 19 7 64 10 100 3
36 7 79 10 95 3 17 8 53 11 80 3 28 6 61 8 75 2 14 6 52 10 85 4 33 11 89 16
125 5 36 12 88 15 115 4 28 8 61 11 75 4 27 11 73 19 143 5 39 28 188 42 267
3 19 7 44 8 55 5 40 15 102 30 180 26 147 28 174 11 147z"/>
<path d="M7155 9350 c-3 -5 -4 -14 0 -20 3 -5 8 -33 10 -62 3 -29 7 -64 10
-78 3 -14 7 -49 11 -78 3 -29 7 -63 10 -75 2 -11 6 -37 8 -57 3 -19 8 -55 12
-80 3 -25 8 -65 11 -90 2 -25 6 -56 8 -70 2 -14 6 -54 10 -90 3 -36 8 -76 11
-90 2 -14 6 -54 10 -90 3 -36 7 -76 10 -90 2 -14 6 -54 9 -90 3 -36 8 -85 11
-110 3 -25 7 -65 9 -90 4 -56 14 -169 19 -235 6 -65 18 -236 22 -300 1 -27 3
-50 4 -50 1 0 3 -31 5 -70 2 -38 6 -124 9 -190 22 -410 29 -706 29 -1180 0
-390 -8 -818 -18 -995 -3 -41 -7 -124 -9 -185 -3 -60 -6 -110 -6 -110 -1 0 -3
-35 -5 -77 -4 -83 -12 -216 -20 -313 -3 -33 -7 -89 -10 -125 -5 -75 -15 -187
-21 -245 -2 -22 -6 -69 -9 -105 -7 -82 -13 -142 -20 -200 -6 -50 -14 -130 -21
-205 -5 -55 -8 -83 -19 -165 -4 -30 -9 -66 -10 -80 -1 -14 -6 -50 -10 -80 -4
-30 -9 -71 -11 -90 -6 -57 -13 -111 -18 -144 -3 -17 -8 -53 -11 -81 -4 -27 -9
-61 -11 -75 -3 -14 -7 -45 -10 -70 -2 -25 -6 -52 -8 -60 -5 -24 -17 -102 -21
-135 -2 -16 -4 -30 -5 -30 -1 0 -3 -13 -5 -30 -1 -16 -17 -115 -34 -220 -18
-104 -34 -205 -36 -222 -3 -18 -9 -51 -14 -73 -5 -23 -5 -40 0 -40 5 0 9 6 10
13 1 14 -1 9 38 164 17 67 33 132 35 145 3 13 12 52 21 88 9 35 18 74 20 85 2
11 4 20 5 20 1 0 3 9 4 20 2 11 6 34 10 50 3 17 9 41 11 55 3 14 8 36 11 50 3
14 8 39 11 55 6 33 7 39 16 75 4 14 9 39 11 55 3 17 8 44 11 60 3 17 10 53 15
80 5 28 11 60 14 71 2 12 7 38 10 58 3 20 9 52 12 72 3 20 8 46 10 58 2 11 7
37 10 56 3 19 11 76 19 125 8 50 16 108 19 130 5 42 14 102 21 145 3 14 7 50
11 80 3 30 8 66 10 80 2 14 7 45 9 70 3 25 7 65 11 90 3 25 7 59 9 75 2 17 6
50 10 75 3 25 8 70 10 100 7 78 11 103 20 122 9 22 59 35 157 42 43 2 83 8 89
12 8 5 9 3 4 -6 -5 -8 -4 -11 2 -7 9 6 58 11 188 21 111 9 230 18 270 21 22 2
76 6 120 9 127 10 194 15 285 21 47 3 119 7 160 10 100 7 226 15 330 20 47 2
132 7 190 10 58 3 152 8 210 10 58 3 155 7 215 10 177 7 548 23 751 30 76 3
184 7 239 10 55 2 218 4 363 5 151 0 260 5 257 10 -6 9 -1474 6 -1680 -4 -148
-7 -338 -16 -470 -21 -55 -2 -143 -7 -195 -10 -53 -2 -147 -7 -210 -10 -63 -4
-146 -8 -185 -10 -38 -2 -119 -7 -180 -10 -60 -3 -148 -8 -195 -11 -47 -2
-128 -7 -180 -9 -52 -3 -131 -7 -175 -10 -44 -2 -134 -7 -200 -10 -66 -4 -122
-7 -125 -7 -26 -2 -29 5 -24 55 2 28 6 81 9 117 2 36 6 90 9 120 3 30 7 98 11
150 3 52 9 124 11 160 9 114 11 741 2 746 -4 3 -4 13 2 23 5 10 7 21 4 23 -2
3 -6 56 -9 119 -15 369 -15 374 -30 639 -2 41 -6 111 -9 155 -3 44 -8 123 -11
175 -2 52 -5 95 -6 95 -1 0 -3 19 -13 155 -12 156 -16 206 -20 235 -3 17 -8
66 -11 110 -4 44 -9 98 -11 120 -9 70 -14 109 -19 160 -2 28 -7 73 -10 100 -4
28 -8 64 -10 80 -2 17 -6 55 -10 85 -3 30 -8 69 -10 85 -3 17 -8 53 -11 80 -3
28 -8 61 -9 75 -2 14 -7 52 -10 85 -4 33 -8 67 -10 75 -2 8 -7 40 -10 70 -3
30 -8 66 -10 80 -2 14 -9 63 -15 110 -12 89 -14 104 -25 185 -7 47 -10 65 -19
118 -2 12 -7 42 -10 67 -4 25 -10 59 -13 75 -7 36 -8 43 -18 118 -7 57 -18 77
-30 57z"/>
<path d="M5400 8740 c0 -5 5 -10 11 -10 5 0 7 5 4 10 -3 6 -8 10 -11 10 -2 0
-4 -4 -4 -10z"/>
<path d="M8867 6806 c-8 -20 -88 -56 -126 -56 -17 0 -50 9 -71 19 -46 22 -48
19 -19 -28 39 -65 40 -74 9 -140 -16 -33 -26 -61 -22 -61 3 0 33 14 67 31 l60
32 56 -27 c31 -14 59 -26 62 -26 7 0 -14 52 -24 60 -11 9 -25 45 -24 60 1 8 3
25 3 37 1 12 8 28 16 35 7 8 17 29 21 46 7 32 2 44 -8 18z"/>
<path d="M8209 5995 c-3 -36 -11 -53 -39 -76 l-31 -27 27 -6 c15 -4 43 -24 62
-44 20 -20 33 -29 30 -21 -9 23 18 72 50 92 15 9 21 17 15 18 -38 4 -67 20
-90 48 -13 14 -23 22 -24 16z"/>
<path d="M195 3250 c-3 -6 1 -7 9 -4 18 7 21 14 7 14 -6 0 -13 -4 -16 -10z"/>
<path d="M150 3240 c0 -5 7 -7 15 -4 8 4 15 8 15 10 0 2 -7 4 -15 4 -8 0 -15
-4 -15 -10z"/>
</g>
</svg>
